<?xml version="1.0" encoding="utf-8"?>
<!-- Generator: Adobe Illustrator 16.0.0, SVG Export Plug-In . SVG Version: 6.00 Build 0)  -->
<!DOCTYPE svg PUBLIC "-//W3C//DTD SVG 1.1//EN" "http://www.w3.org/Graphics/SVG/1.1/DTD/svg11.dtd">
<svg version="1.1" id="Layer_1" xmlns="http://www.w3.org/2000/svg" xmlns:xlink="http://www.w3.org/1999/xlink" x="0px" y="0px"
	 width="792px" height="612px" viewBox="0 0 792 612" enable-background="new 0 0 792 612" xml:space="preserve">
<g>
	<defs>
		<rect id="SVGID_1_" x="273.653" y="136.608" width="291.716" height="291.752"/>
	</defs>
	<clipPath id="SVGID_2_">
		<use xlink:href="#SVGID_1_"  overflow="visible"/>
	</clipPath>
	<path clip-path="url(#SVGID_2_)" fill="#F8F8F8" d="M541.061,390.27v-20.285v-43.753v-72.929c0-50.946-41.451-92.384-92.373-92.384
		h-58.346c-50.941,0-92.374,41.438-92.374,92.384c0,50.934,41.433,92.372,92.374,92.372h96.069h10.065l7.121,7.123L541.061,390.27
		 M550.793,428.337c-4.035,0-7.691-1.639-10.326-4.274l-54.056-54.078h-96.069c-64.455,0-116.682-52.24-116.682-116.682
		c0-64.43,52.228-116.694,116.682-116.694h58.346c64.431,0,116.682,52.264,116.682,116.694v72.929v43.753v43.764
		C565.369,421.796,558.841,428.337,550.793,428.337"/>
</g>
</svg>
