<?xml version="1.0" encoding="utf-8"?>
<!-- Generator: Adobe Illustrator 16.0.0, SVG Export Plug-In . SVG Version: 6.00 Build 0)  -->
<!DOCTYPE svg PUBLIC "-//W3C//DTD SVG 1.1//EN" "http://www.w3.org/Graphics/SVG/1.1/DTD/svg11.dtd">
<svg version="1.1" id="Layer_1" xmlns="http://www.w3.org/2000/svg" xmlns:xlink="http://www.w3.org/1999/xlink" x="0px" y="0px"
	 width="566.93px" height="566.93px" viewBox="0 0 566.93 566.93" enable-background="new 0 0 566.93 566.93" xml:space="preserve">
<path fill="#FFFFFF" d="M500.708,483.425v-36.979v-79.794V233.675c0-92.895-75.583-168.477-168.452-168.477H225.881
	c-92.908,0-168.453,75.583-168.453,168.477c0,92.865,75.545,168.421,168.453,168.421h175.117h18.385l12.987,13.002L500.708,483.425
	 M518.432,552.854c-7.367,0-13.996-2.996-18.814-7.804l-98.619-98.604H225.881c-117.519,0-212.773-95.255-212.773-212.771
	c0-117.475,95.254-212.785,212.773-212.785h106.375c117.506,0,212.789,95.31,212.789,212.785v132.977v79.794v79.795
	C545.045,540.93,533.104,552.854,518.432,552.854"/>
</svg>
