<?xml version="1.0" encoding="utf-8"?>
<!-- Generator: Adobe Illustrator 16.0.0, SVG Export Plug-In . SVG Version: 6.00 Build 0)  -->
<!DOCTYPE svg PUBLIC "-//W3C//DTD SVG 1.1//EN" "http://www.w3.org/Graphics/SVG/1.1/DTD/svg11.dtd">
<svg version="1.1" id="Layer_1" xmlns="http://www.w3.org/2000/svg" xmlns:xlink="http://www.w3.org/1999/xlink" x="0px" y="0px"
	 width="566.93px" height="566.93px" viewBox="0 0 566.93 566.93" enable-background="new 0 0 566.93 566.93" xml:space="preserve">
<g>
	<path fill="#FFFFFF" d="M281.683,60.078c-2.012,0-3.941,0.81-5.756,2.404l-32.987,28.85l-0.153-0.14L93.024,222.194l0.167,0.184
		L60.471,251.03c-1.466,1.255-3.213,3.437-3.213,6.553c0,0.14,0.013,0.771,0.292,2.029l4.332,19.76l38.971,175.37l0.096-0.041
		l10.455,47.255c0.767,3.481,3.997,7.019,8.709,7.019h26.917h53.868c4.946,0,8.973-4.041,8.973-8.989v-53.866v-26.918
		c0-39.611,32.201-71.842,71.811-71.842c39.585,0,71.827,32.23,71.827,71.842v26.918v53.866c0,4.948,4.027,8.989,8.96,8.989h80.827
		c4.685,0,7.925-3.537,8.651-7.019l1.315-5.772l6.374-30.191H460l2.307-10.34l0,0l34.452-154.837l-0.08-0.026l9.183-41.29
		c0.237-1.062,0.277-1.635,0.277-1.916c0-3.116-1.762-5.298-3.227-6.553l-32.581-28.529l0.153-0.167L320.986,91.525l-0.153,0.184
		l-33.404-29.227C285.623,60.887,283.669,60.078,281.683,60.078 M281.683,15.211c13.57,0,25.857,5.2,35.337,13.489l0.15-0.155
		l215.426,188.523l-0.109,0.164c11.264,9.857,18.545,24.181,18.545,40.352c0,4.028-0.513,7.925-1.367,11.672l0.069,0.026
		l-53.687,241.523c0,0.026,0,0.084-0.056,0.084l-0.153,0.797l-0.039-0.017c-5.357,24.124-26.796,42.184-52.502,42.184H362.47
		c-29.73,0-53.866-24.125-53.866-53.868v-53.866v-26.918c0-14.886-12.022-26.948-26.921-26.948
		c-14.871,0-26.917,12.062-26.917,26.948v26.918v53.866c0,29.743-24.099,53.868-53.867,53.868H147.03h-26.917
		c-25.747,0-47.188-18.06-52.528-42.184l-0.082,0.017l-0.127-0.797c-0.042,0-0.042-0.058-0.042-0.101l-53.67-241.507l0.055-0.026
		c-0.838-3.748-1.341-7.645-1.341-11.672c0-16.17,7.269-30.494,18.533-40.352l-0.167-0.164L246.196,28.545l0.184,0.155
		C255.83,20.412,268.112,15.211,281.683,15.211"/>
</g>
</svg>
