<?xml version="1.0" encoding="utf-8"?>
<!-- Generator: Adobe Illustrator 16.0.0, SVG Export Plug-In . SVG Version: 6.00 Build 0)  -->
<!DOCTYPE svg PUBLIC "-//W3C//DTD SVG 1.1//EN" "http://www.w3.org/Graphics/SVG/1.1/DTD/svg11.dtd">
<svg version="1.1" id="Layer_1" xmlns="http://www.w3.org/2000/svg" xmlns:xlink="http://www.w3.org/1999/xlink" x="0px" y="0px"
	 width="566.93px" height="566.93px" viewBox="0 0 566.93 566.93" enable-background="new 0 0 566.93 566.93" xml:space="preserve">
<path fill="#FFFFFF" d="M388.243,503.918c35.862,0,65.05-29.173,65.05-65.031v-43.366c0-35.856-29.188-65.031-65.05-65.031H171.47
	c-35.861,0-65.042,29.175-65.042,65.031v43.366c0,35.858,29.181,65.031,65.042,65.031H388.243 M279.86,200.407
	c35.855,0,65.032-29.162,65.032-65.034c0-35.859-29.177-65.033-65.032-65.033c-35.879,0-65.042,29.174-65.042,65.033
	C214.818,171.245,243.981,200.407,279.86,200.407 M388.243,547.272H171.47c-59.891,0-108.4-48.538-108.4-108.386v-43.366
	c0-59.876,48.509-108.383,108.4-108.383h216.773c59.837,0,108.401,48.507,108.401,108.383v43.366
	C496.645,498.734,448.08,547.272,388.243,547.272 M279.86,243.771c-59.884,0-108.391-48.536-108.391-108.398
	S219.976,26.989,279.86,26.989c59.864,0,108.383,48.521,108.383,108.384S339.725,243.771,279.86,243.771"/>
</svg>
